<svg xmlns="http://www.w3.org/2000/svg" viewBox="0 0 461.77 438.9"><defs><style>.cls-1{fill:#dbe9fc;}.cls-2{fill:#f4e7d9;}.cls-3{fill:#36264f;}.cls-4{fill:#7fe2b3;}.cls-5{fill:#ffaf60;}.cls-6{fill:#e04c66;}.cls-7{fill:#ce4160;}.cls-8{fill:#f9a535;}.cls-9{fill:#72b7ed;}.cls-10{fill:#58a6db;}.cls-11{fill:#fff;}.cls-12{fill:#ededed;}.cls-13{fill:#e88f23;}.cls-14{fill:#6fd1a0;}.cls-15{fill:#3c3c63;}.cls-16{fill:#303251;}.cls-17{fill:#3c53ef;}.cls-18{fill:#3046d8;}.cls-19{fill:#d2daff;}.cls-20{fill:#546bfc;}.cls-21{fill:#4655f9;}.cls-22{fill:#fefefe;}.cls-23{fill:#ed8824;}.cls-24{fill:#dd7719;}.cls-25{fill:#41475a;}.cls-26{fill:#ffeaa6;}.cls-27{fill:#85b4ff;}.cls-28{fill:#6ea8f4;}.cls-29{fill:#a6cdff;}.cls-30{fill:#95c3f4;}.cls-31{fill:#3e5eb5;}.cls-32{fill:#274a96;}.cls-33{opacity:0.25;}.cls-34{fill:#ffd850;}.cls-35{fill:#242c4f;}.cls-36{fill:#dd4e4f;}.cls-37{fill:#96242e;}.cls-38{fill:#2544ce;}.cls-39{fill:#d14247;}.cls-40{fill:#f2c53b;}</style></defs><g id="OBJECTS"><path class="cls-1" d="M42.24,402.84A73.77,73.77,0,0,1,16.42,291.53c11.56-15,29.17-26,35.1-44S50,210.5,48.44,191.75c-2.45-30,11.69-60.86,36-78.59s58-21.73,85.84-10.2c18.15,7.53,33.2,20.81,50,31a165.72,165.72,0,0,0,96.62,23.69c21.85-1.47,43.45-7.29,65.33-6.2s45.42,11.32,53.39,31.72c6.35,16.25,1.35,34.65-5.54,50.67S414.33,265.6,412.77,283c-1.38,15.4,3.15,30.66,7.86,45.39s9.7,29.75,9.29,45.21c-.35,12.79-5.19,26.15-14.65,34.37"/><ellipse class="cls-2" cx="230.84" cy="405.05" rx="226.73" ry="10.68"/><path class="cls-3" d="M394.15,185.7h-3v-3a.7.7,0,0,0-1.4,0v3h-3a.7.7,0,1,0,0,1.39h3v3a.7.7,0,0,0,1.4,0v-3h3a.7.7,0,1,0,0-1.39Z"/><path class="cls-3" d="M288.41,54.83h-3v-3a.7.7,0,0,0-1.4,0v3h-3a.7.7,0,1,0,0,1.4h3v3a.7.7,0,1,0,1.4,0v-3h3a.7.7,0,0,0,0-1.4Z"/><path class="cls-3" d="M409,17.38h-3v-3a.7.7,0,1,0-1.4,0v3h-3a.7.7,0,0,0,0,1.4h3v3a.7.7,0,0,0,1.4,0v-3h3a.7.7,0,0,0,0-1.4Z"/><path class="cls-3" d="M453.57,286.2h-3v-3a.7.7,0,0,0-1.4,0v3h-3a.7.7,0,0,0,0,1.4h3v3a.7.7,0,0,0,1.4,0v-3h3a.7.7,0,0,0,0-1.4Z"/><path class="cls-3" d="M99.18,11.16h-3v-3a.7.7,0,1,0-1.4,0v3h-3a.7.7,0,1,0,0,1.39h3v3a.7.7,0,1,0,1.4,0v-3h3a.7.7,0,1,0,0-1.39Z"/><path class="cls-3" d="M15.06,165.14h-3v-3a.7.7,0,1,0-1.39,0v3h-3a.7.7,0,1,0,0,1.39h3v3a.7.7,0,1,0,1.39,0v-3h3a.7.7,0,1,0,0-1.39Z"/><path class="cls-3" d="M54.13,309.06h-3v-3a.7.7,0,1,0-1.4,0v3h-3a.7.7,0,1,0,0,1.39h3v3a.7.7,0,1,0,1.4,0v-3h3a.7.7,0,0,0,0-1.39Z"/><path class="cls-4" d="M175.16,54.75c-2.57,0-2.58,4,0,4S177.74,54.75,175.16,54.75Z"/><path class="cls-4" d="M319.49,0c-2.57,0-2.58,4,0,4S322.07,0,319.49,0Z"/><path class="cls-4" d="M430,105.51c-2.57,0-2.58,4,0,4S432.56,105.51,430,105.51Z"/><path class="cls-4" d="M26.85,22.89c-2.58,0-2.58,4,0,4S29.42,22.89,26.85,22.89Z"/><path class="cls-4" d="M110.46,148.31c-2.57,0-2.58,4,0,4S113,148.31,110.46,148.31Z"/><path class="cls-4" d="M15.9,228.94c-2.58,0-2.58,4,0,4S18.47,228.94,15.9,228.94Z"/><path class="cls-4" d="M18.88,348.39c-2.57,0-2.58,4,0,4S21.46,348.39,18.88,348.39Z"/><path class="cls-4" d="M459.84,355.35c-2.57,0-2.58,4,0,4S462.42,355.35,459.84,355.35Z"/><path class="cls-4" d="M408.08,229.94c-2.57,0-2.58,4,0,4S410.66,229.94,408.08,229.94Z"/><path class="cls-5" d="M358,80.63a1,1,0,0,0,0,2A1,1,0,0,0,358,80.63Z"/><path class="cls-5" d="M225.79,1a1,1,0,0,0,0,2A1,1,0,0,0,225.79,1Z"/><path class="cls-5" d="M115.52,70.68a1,1,0,0,0,0,2A1,1,0,0,0,115.52,70.68Z"/><path class="cls-5" d="M62.68,208a1,1,0,0,0,0,2A1,1,0,0,0,62.68,208Z"/><path class="cls-5" d="M1,288.67a1,1,0,0,0,0,2A1,1,0,0,0,1,288.67Z"/><path class="cls-5" d="M338.4,173.2a1,1,0,0,0,0,2A1,1,0,0,0,338.4,173.2Z"/><path class="cls-5" d="M456.85,224a1,1,0,0,0,0,2A1,1,0,0,0,456.85,224Z"/><path class="cls-5" d="M389.17,301.61a1,1,0,0,0,0,2A1,1,0,0,0,389.17,301.61Z"/><path class="cls-5" d="M10.92,98.55a1,1,0,0,0,0,2A1,1,0,0,0,10.92,98.55Z"/><rect class="cls-6" x="293.35" y="208.5" width="78.32" height="196.25"/><polygon class="cls-7" points="293.35 208.5 371.68 259.16 371.68 208.5 293.35 208.5"/><rect class="cls-8" x="304.95" y="246.93" width="19.46" height="2.9"/><path class="cls-9" d="M322.58,246.93H306.79V226.55a7.89,7.89,0,0,1,7.89-7.89h0a7.9,7.9,0,0,1,7.9,7.89Z"/><path class="cls-10" d="M314.68,218.66a7.82,7.82,0,0,0-4,1.07l11.86,7.67v-.85A7.9,7.9,0,0,0,314.68,218.66Z"/><path class="cls-11" d="M314.68,218.22a8.34,8.34,0,0,0-8.33,8.33v20.38h.88V227h7v19.94h.87V227h7v19.94H323V226.55A8.35,8.35,0,0,0,314.68,218.22Zm-7.43,7.89a7.45,7.45,0,0,1,7-7v7Zm7.87-7a7.45,7.45,0,0,1,7,7h-7Z"/><path class="cls-12" d="M314.68,218.22a8.28,8.28,0,0,0-4.37,1.25l.83.54a7.32,7.32,0,0,1,3.11-.89V222l.87.56v-3.46a7.45,7.45,0,0,1,7,7h-1.54l1.35.88h.21v.13l.88.57v-1.14A8.35,8.35,0,0,0,314.68,218.22Z"/><rect class="cls-8" x="286.28" y="201.53" width="92.47" height="6.97"/><rect class="cls-8" x="340.61" y="246.93" width="19.46" height="2.9"/><path class="cls-9" d="M350.35,218.66h0a7.89,7.89,0,0,1,7.89,7.89v20.38a0,0,0,0,1,0,0H342.45a0,0,0,0,1,0,0V226.55A7.89,7.89,0,0,1,350.35,218.66Z"/><path class="cls-10" d="M350.35,218.66h0a7.9,7.9,0,0,0-7.9,7.89v13.71l10.32,6.67h5.47V226.55A7.89,7.89,0,0,0,350.35,218.66Z"/><path class="cls-11" d="M350.34,218.22a8.34,8.34,0,0,0-8.33,8.33v20.38h.88V227h7v19.94h.87V227h7v19.94h.88V226.55A8.35,8.35,0,0,0,350.34,218.22Zm-7.43,7.89a7.45,7.45,0,0,1,7-7v7Zm7.87-7a7.45,7.45,0,0,1,7,7h-7Z"/><path class="cls-12" d="M350.34,218.22a8.34,8.34,0,0,0-8.33,8.33V240l.88.56V227h7v18.09l.87.57V227h7v19.94h.88V226.55A8.35,8.35,0,0,0,350.34,218.22Zm-.43,7.89h-7a7.45,7.45,0,0,1,7-7Zm.87,0v-7a7.45,7.45,0,0,1,7,7Z"/><polygon class="cls-13" points="357.26 249.83 360.08 249.83 360.08 246.93 352.76 246.93 357.26 249.83"/><rect class="cls-8" x="304.95" y="285.66" width="19.46" height="2.9"/><path class="cls-9" d="M322.58,285.66H306.79V265.28a7.89,7.89,0,0,1,7.89-7.89h0a7.9,7.9,0,0,1,7.9,7.89Z"/><path class="cls-11" d="M314.68,257a8.34,8.34,0,0,0-8.33,8.33v20.38h.88V265.72h7v19.94h.87V265.72h7v19.94H323V265.28A8.35,8.35,0,0,0,314.68,257Zm-7.43,7.89a7.45,7.45,0,0,1,7-7v7Zm7.87-7a7.45,7.45,0,0,1,7,7h-7Z"/><rect class="cls-8" x="340.61" y="285.66" width="19.46" height="2.9"/><path class="cls-9" d="M350.35,257.39h0a7.89,7.89,0,0,1,7.89,7.89v20.38a0,0,0,0,1,0,0H342.45a0,0,0,0,1,0,0V265.28A7.89,7.89,0,0,1,350.35,257.39Z"/><path class="cls-11" d="M350.34,257a8.34,8.34,0,0,0-8.33,8.33v20.38h.88V265.72h7v19.94h.87V265.72h7v19.94h.88V265.28A8.35,8.35,0,0,0,350.34,257Zm-7.43,7.89a7.45,7.45,0,0,1,7-7v7Zm7.87-7a7.45,7.45,0,0,1,7,7h-7Z"/><rect class="cls-8" x="304.95" y="324.39" width="19.46" height="2.9"/><path class="cls-9" d="M322.58,324.39H306.79V304a7.9,7.9,0,0,1,7.89-7.9h0a7.9,7.9,0,0,1,7.9,7.9Z"/><path class="cls-11" d="M314.68,295.68a8.34,8.34,0,0,0-8.33,8.33v20.38h.88V304.44h7v19.95h.87V304.44h7v19.95H323V304A8.34,8.34,0,0,0,314.68,295.68Zm-7.43,7.89a7.46,7.46,0,0,1,7-7v7Zm7.87-7a7.46,7.46,0,0,1,7,7h-7Z"/><rect class="cls-8" x="340.61" y="324.39" width="19.46" height="2.9"/><path class="cls-9" d="M350.35,296.11h0a7.89,7.89,0,0,1,7.89,7.89v20.38a0,0,0,0,1,0,0H342.45a0,0,0,0,1,0,0V304A7.89,7.89,0,0,1,350.35,296.11Z"/><path class="cls-11" d="M350.34,295.68A8.34,8.34,0,0,0,342,304v20.38h.88V304.44h7v19.95h.87V304.44h7v19.95h.88V304A8.34,8.34,0,0,0,350.34,295.68Zm-7.43,7.89a7.46,7.46,0,0,1,7-7v7Zm7.87-7a7.46,7.46,0,0,1,7,7h-7Z"/><rect class="cls-8" x="304.95" y="363.11" width="19.46" height="2.9"/><path class="cls-9" d="M322.58,363.11H306.79V342.74a7.9,7.9,0,0,1,7.89-7.9h0a7.9,7.9,0,0,1,7.9,7.9Z"/><path class="cls-11" d="M314.68,334.41a8.34,8.34,0,0,0-8.33,8.33v20.37h.88V343.17h7v19.94h.87V343.17h7v19.94H323V342.74A8.34,8.34,0,0,0,314.68,334.41Zm-7.43,7.89a7.46,7.46,0,0,1,7-7v7Zm7.87-7a7.46,7.46,0,0,1,7,7h-7Z"/><rect class="cls-8" x="340.61" y="363.11" width="19.46" height="2.9"/><path class="cls-9" d="M350.35,334.84h0a7.89,7.89,0,0,1,7.89,7.89v20.38a0,0,0,0,1,0,0H342.45a0,0,0,0,1,0,0V342.74a7.89,7.89,0,0,1,7.89-7.89Z"/><path class="cls-11" d="M350.34,334.41a8.34,8.34,0,0,0-8.33,8.33v20.37h.88V343.17h7v19.94h.87V343.17h7v19.94h.88V342.74A8.34,8.34,0,0,0,350.34,334.41Zm-7.43,7.89a7.46,7.46,0,0,1,7-7v7Zm7.87-7a7.46,7.46,0,0,1,7,7h-7Z"/><path class="cls-9" d="M341.22,404.75H323.81V382.28a8.71,8.71,0,0,1,8.71-8.71h0a8.71,8.71,0,0,1,8.7,8.71Z"/><path class="cls-11" d="M332.51,373.13a9.15,9.15,0,0,0-9.14,9.15v22.47h.88v-22h7.83v22H333v-22h7.83v22h.88V382.28A9.15,9.15,0,0,0,332.51,373.13Zm-8.24,8.71a8.26,8.26,0,0,1,7.81-7.81v7.81ZM333,374a8.26,8.26,0,0,1,7.81,7.81H333Z"/><rect class="cls-4" x="74.84" y="185.85" width="90.08" height="218.73"/><polygon class="cls-14" points="74.84 185.85 164.93 241.97 164.93 185.85 74.84 185.85"/><rect class="cls-9" x="112.23" y="196.42" width="15.3" height="25.19"/><rect class="cls-15" x="109.36" y="221.61" width="21.05" height="2.88"/><polygon class="cls-10" points="112.23 209.14 127.53 218.68 127.53 196.42 112.23 196.42 112.23 209.14"/><path class="cls-11" d="M111.73,195.92v25.69h1v-3.88h6.65v3.88h1v-3.88H127v3.88h1V195.92ZM127,200.3h-6.66v-3.38H127Zm-7.66-3.38v3.38h-6.65v-3.38Zm-6.65,19.81V201.3h6.65v15.43Zm7.65,0V201.3H127v15.43Z"/><path class="cls-12" d="M111.73,208.83l1,.62V201.3h6.65v12.3l1,.62V201.3H127v15.43h-2.63l1.61,1h1v.63l1,.63V195.92H111.73Zm8.65-11.91H127v3.38h-6.66Zm-7.65,0h6.65v3.38h-6.65Z"/><rect class="cls-9" x="84.45" y="196.42" width="15.3" height="25.19"/><rect class="cls-15" x="81.57" y="221.61" width="21.05" height="2.88"/><polygon class="cls-10" points="99.75 201.37 99.75 196.42 91.81 196.42 99.75 201.37"/><path class="cls-11" d="M84,195.92v25.69h1v-3.88H91.6v3.88h1v-3.88h6.65v3.88h1V195.92Zm15.3,4.38H92.6v-3.38h6.65Zm-7.65-3.38v3.38H85v-3.38ZM85,216.73V201.3H91.6v15.43Zm7.65,0V201.3h6.65v15.43Z"/><polygon class="cls-12" points="92.61 196.92 99.25 196.92 99.25 200.3 98.03 200.3 100.25 201.68 100.25 195.92 91.01 195.92 92.61 196.92"/><rect class="cls-10" x="140.02" y="196.42" width="15.3" height="25.19" transform="translate(295.34 418.03) rotate(180)"/><rect class="cls-16" x="137.14" y="221.61" width="21.05" height="2.88" transform="translate(295.34 446.09) rotate(180)"/><path class="cls-12" d="M139.52,195.92v25.69h1v-3.88h6.65v3.88h1v-3.88h6.65v3.88h1V195.92Zm1,1h6.65v3.38h-6.65Zm14.3,0v3.38h-6.65v-3.38Zm-6.65,19.81V201.3h6.65v15.43Zm-7.65,0V201.3h6.65v15.43Z"/><rect class="cls-9" x="112.23" y="235.05" width="15.3" height="25.19"/><rect class="cls-15" x="109.36" y="260.24" width="21.05" height="2.88"/><path class="cls-11" d="M111.73,234.55v25.69h1v-3.88h6.65v3.88h1v-3.88H127v3.88h1V234.55ZM127,238.93h-6.66v-3.38H127Zm-7.66-3.38v3.38h-6.65v-3.38Zm-6.65,19.81V239.93h6.65v15.43Zm7.65,0V239.93H127v15.43Z"/><rect class="cls-9" x="84.45" y="235.05" width="15.3" height="25.19"/><rect class="cls-15" x="81.57" y="260.24" width="21.05" height="2.88"/><path class="cls-11" d="M84,234.55v25.69h1v-3.88H91.6v3.88h1v-3.88h6.65v3.88h1V234.55Zm15.3,4.38H92.6v-3.38h6.65Zm-7.65-3.38v3.38H85v-3.38ZM85,255.36V239.93H91.6v15.43Zm7.65,0V239.93h6.65v15.43Z"/><rect class="cls-9" x="140.02" y="235.05" width="15.3" height="25.19" transform="translate(295.34 495.29) rotate(180)"/><rect class="cls-15" x="137.14" y="260.24" width="21.05" height="2.88" transform="translate(295.34 523.36) rotate(180)"/><path class="cls-11" d="M139.52,234.55v25.69h1v-3.88h6.65v3.88h1v-3.88h6.65v3.88h1V234.55Zm1,1h6.65v3.38h-6.65Zm14.3,0v3.38h-6.65v-3.38Zm-6.65,19.81V239.93h6.65v15.43Zm-7.65,0V239.93h6.65v15.43Z"/><polygon class="cls-12" points="154.63 235.55 154.82 235.55 154.82 235.67 155.82 236.3 155.82 234.55 153.02 234.55 154.63 235.55"/><polygon class="cls-14" points="74.84 278.11 164.93 334.23 164.93 278.11 74.84 278.11"/><rect class="cls-9" x="112.23" y="288.68" width="15.3" height="25.19"/><rect class="cls-15" x="109.36" y="313.87" width="21.05" height="2.88"/><polygon class="cls-10" points="112.23 301.4 127.53 310.94 127.53 288.68 112.23 288.68 112.23 301.4"/><path class="cls-11" d="M111.73,288.18v25.69h1V310h6.65v3.88h1V310H127v3.88h1V288.18ZM127,292.56h-6.66v-3.38H127Zm-7.66-3.38v3.38h-6.65v-3.38ZM112.73,309V293.56h6.65V309Zm7.65,0V293.56H127V309Z"/><path class="cls-12" d="M111.73,301.09l1,.63v-8.16h6.65v12.3l1,.62V293.56H127V309h-2.63l1.61,1h1v.64l1,.62V288.18H111.73Zm8.65-11.91H127v3.38h-6.66Zm-7.65,0h6.65v3.38h-6.65Z"/><rect class="cls-9" x="84.45" y="288.68" width="15.3" height="25.19"/><rect class="cls-15" x="81.57" y="313.87" width="21.05" height="2.88"/><polygon class="cls-10" points="99.75 293.63 99.75 288.68 91.81 288.68 99.75 293.63"/><path class="cls-11" d="M84,288.18v25.69h1V310H91.6v3.88h1V310h6.65v3.88h1V288.18Zm15.3,4.38H92.6v-3.38h6.65Zm-7.65-3.38v3.38H85v-3.38ZM85,309V293.56H91.6V309Zm7.65,0V293.56h6.65V309Z"/><polygon class="cls-12" points="92.61 289.18 99.25 289.18 99.25 292.56 98.03 292.56 100.25 293.94 100.25 288.18 91.01 288.18 92.61 289.18"/><rect class="cls-10" x="140.02" y="288.68" width="15.3" height="25.19" transform="translate(295.34 602.55) rotate(180)"/><rect class="cls-16" x="137.14" y="313.87" width="21.05" height="2.88" transform="translate(295.34 630.61) rotate(180)"/><path class="cls-12" d="M139.52,288.18v25.69h1V310h6.65v3.88h1V310h6.65v3.88h1V288.18Zm1,1h6.65v3.38h-6.65Zm14.3,0v3.38h-6.65v-3.38ZM148.17,309V293.56h6.65V309Zm-7.65,0V293.56h6.65V309Z"/><rect class="cls-9" x="112.23" y="327.31" width="15.3" height="25.19"/><rect class="cls-15" x="109.36" y="352.5" width="21.05" height="2.88"/><path class="cls-11" d="M111.73,326.81V352.5h1v-3.87h6.65v3.87h1v-3.87H127v3.87h1V326.81ZM127,331.19h-6.66v-3.38H127Zm-7.66-3.38v3.38h-6.65v-3.38Zm-6.65,19.82V332.19h6.65v15.44Zm7.65,0V332.19H127v15.44Z"/><rect class="cls-9" x="84.45" y="327.31" width="15.3" height="25.19"/><rect class="cls-15" x="81.57" y="352.5" width="21.05" height="2.88"/><path class="cls-11" d="M84,326.81V352.5h1v-3.87H91.6v3.87h1v-3.87h6.65v3.87h1V326.81Zm15.3,4.38H92.6v-3.38h6.65Zm-7.65-3.38v3.38H85v-3.38ZM85,347.63V332.19H91.6v15.44Zm7.65,0V332.19h6.65v15.44Z"/><rect class="cls-9" x="140.02" y="327.31" width="15.3" height="25.19" transform="translate(295.34 679.82) rotate(180)"/><rect class="cls-15" x="137.14" y="352.5" width="21.05" height="2.88" transform="translate(295.34 707.88) rotate(180)"/><path class="cls-11" d="M139.52,326.81V352.5h1v-3.87h6.65v3.87h1v-3.87h6.65v3.87h1V326.81Zm1,1h6.65v3.38h-6.65Zm14.3,0v3.38h-6.65v-3.38Zm-6.65,19.82V332.19h6.65v15.44Zm-7.65,0V332.19h6.65v15.44Z"/><polygon class="cls-12" points="154.63 327.81 154.82 327.81 154.82 327.93 155.82 328.56 155.82 326.81 153.02 326.81 154.63 327.81"/><rect class="cls-9" x="84.45" y="365.95" width="15.3" height="25.19"/><rect class="cls-15" x="81.57" y="391.14" width="21.05" height="2.88"/><path class="cls-11" d="M84,365.45v25.69h1v-3.88H91.6v3.88h1v-3.88h6.65v3.88h1V365.45Zm15.3,4.37H92.6v-3.37h6.65Zm-7.65-3.37v3.37H85v-3.37ZM85,386.26V370.82H91.6v15.44Zm7.65,0V370.82h6.65v15.44Z"/><rect class="cls-9" x="140.02" y="365.95" width="15.3" height="25.19" transform="translate(295.34 757.08) rotate(180)"/><rect class="cls-15" x="137.14" y="391.14" width="21.05" height="2.88" transform="translate(295.34 785.15) rotate(180)"/><path class="cls-11" d="M139.52,365.45v25.69h1v-3.88h6.65v3.88h1v-3.88h6.65v3.88h1V365.45Zm1,1h6.65v3.37h-6.65Zm14.3,0v3.37h-6.65v-3.37Zm-6.65,19.81V370.82h6.65v15.44Zm-7.65,0V370.82h6.65v15.44Z"/><polygon class="cls-12" points="154.63 366.45 154.82 366.45 154.82 366.57 155.82 367.19 155.82 365.45 153.02 365.45 154.63 366.45"/><rect class="cls-15" x="68.77" y="178.36" width="102.23" height="7.49"/><rect class="cls-15" x="110.14" y="363.86" width="19.48" height="40.72"/><rect class="cls-9" x="112.23" y="365.95" width="15.3" height="38.63"/><polygon class="cls-11" points="127.53 369.82 120.38 369.82 120.38 365.95 119.38 365.95 119.38 369.82 112.23 369.82 112.23 370.82 119.38 370.82 119.38 404.58 120.38 404.58 120.38 370.82 127.53 370.82 127.53 369.82"/><rect class="cls-15" x="74.84" y="273.69" width="90.08" height="4.42"/><rect class="cls-17" x="71.98" y="367.4" width="49.76" height="37.18"/><polygon class="cls-18" points="71.98 367.4 121.74 390.21 121.74 367.4 71.98 367.4"/><polygon class="cls-3" points="32.52 367.4 126.27 367.4 119.9 346.77 38.89 346.77 32.52 367.4"/><rect class="cls-19" x="32.52" y="366.55" width="93.75" height="1.7"/><polygon class="cls-20" points="71.98 404.58 37.05 404.58 37.05 366.76 54.51 343.46 71.98 366.76 71.98 404.58"/><polygon class="cls-21" points="44.52 355.37 71.98 365.35 54.51 342.04 44.52 355.37"/><polygon class="cls-19" points="73.99 370.87 54.51 344.88 35.04 370.87 33.68 369.85 54.51 342.04 75.35 369.85 73.99 370.87"/><rect class="cls-9" x="79.47" y="374.58" width="12.35" height="22.82" rx="3.82"/><path class="cls-10" d="M91.07,376.15A3.82,3.82,0,0,0,88,374.58h-.36Z"/><path class="cls-22" d="M88,374.26H83.29a4.14,4.14,0,0,0-4.14,4.14v15.18a4.14,4.14,0,0,0,4.14,4.14H88a4.15,4.15,0,0,0,4.14-4.14V378.4A4.15,4.15,0,0,0,88,374.26Zm3.47,3.82H86V374.9h2A3.5,3.5,0,0,1,91.47,378.08ZM86,393.26V378.72H91.5v14.54Zm-.64-14.54v14.54H79.78V378.72Zm-2-3.82h2v3.18h-5.5A3.48,3.48,0,0,1,83.29,374.9Zm-3.47,19h5.5v3.18h-2A3.48,3.48,0,0,1,79.82,393.9ZM88,397.08H86V393.9h5.51A3.5,3.5,0,0,1,88,397.08Z"/><path class="cls-12" d="M88,374.26H87l1.48.68a3.42,3.42,0,0,1,1.92.88l1.24.57A4.12,4.12,0,0,0,88,374.26Z"/><rect class="cls-9" x="101.9" y="374.58" width="12.35" height="22.82" rx="3.82" transform="translate(216.15 771.98) rotate(180)"/><path class="cls-10" d="M110.43,374.58h-4.71a3.82,3.82,0,0,0-3.82,3.82v2.72l12.35,5.66V378.4A3.82,3.82,0,0,0,110.43,374.58Z"/><path class="cls-22" d="M110.43,374.26h-4.71a4.15,4.15,0,0,0-4.14,4.14v15.18a4.15,4.15,0,0,0,4.14,4.14h4.71a4.15,4.15,0,0,0,4.14-4.14V378.4A4.15,4.15,0,0,0,110.43,374.26Zm3.47,3.82h-5.51V374.9h2A3.49,3.49,0,0,1,113.9,378.08Zm-5.51,15.18V378.72h5.54v14.54Zm-.63-14.54v14.54h-5.54V378.72Zm-2-3.82h2v3.18h-5.51A3.5,3.5,0,0,1,105.72,374.9Zm-3.47,19h5.51v3.18h-2A3.5,3.5,0,0,1,102.25,393.9Zm8.18,3.18h-2V393.9h5.51A3.49,3.49,0,0,1,110.43,397.08Z"/><path class="cls-12" d="M110.43,374.26h-4.71a4.15,4.15,0,0,0-4.14,4.14V381l.64.29v-2.54h5.54v5.08l.63.3v-5.38h5.54v7.92l.64.29V378.4A4.15,4.15,0,0,0,110.43,374.26Zm-2.67,3.82h-5.51a3.5,3.5,0,0,1,3.47-3.18h2Zm.63,0V374.9h2a3.49,3.49,0,0,1,3.47,3.18Z"/><path class="cls-9" d="M51.16,375.85h6.9a3.82,3.82,0,0,1,3.82,3.82v24.91a0,0,0,0,1,0,0H47.34a0,0,0,0,1,0,0V379.67A3.82,3.82,0,0,1,51.16,375.85Z"/><path class="cls-22" d="M58.06,375.53h-6.9A4.14,4.14,0,0,0,47,379.67v24.91h.63V380h13.9v24.59h.64V379.67A4.15,4.15,0,0,0,58.06,375.53Zm3.47,3.82h-6.6v-3.18h3.13A3.49,3.49,0,0,1,61.53,379.35Zm-10.37-3.18h3.13v3.18h-6.6A3.5,3.5,0,0,1,51.16,376.17Z"/><path class="cls-9" d="M60.57,362.54a6.06,6.06,0,1,1-6.06-6.06A6.06,6.06,0,0,1,60.57,362.54Z"/><path class="cls-10" d="M60.4,361.14a6,6,0,0,0-9.5-3.45Z"/><path class="cls-22" d="M54.51,356.16a6.38,6.38,0,1,0,6.38,6.38A6.38,6.38,0,0,0,54.51,356.16Zm5.73,6.06H54.83v-5.4A5.74,5.74,0,0,1,60.24,362.22Zm-6-5.4v5.4H48.79A5.74,5.74,0,0,1,54.2,356.82Zm.31,11.46a5.75,5.75,0,0,1-5.72-5.42H60.24A5.75,5.75,0,0,1,54.51,368.28Z"/><path class="cls-12" d="M54.51,356.16a6.35,6.35,0,0,0-4,1.4l.72.26a5.72,5.72,0,0,1,2.94-1v2.07l.63.23v-2.3A5.74,5.74,0,0,1,60,361l.73.26A6.39,6.39,0,0,0,54.51,356.16Z"/><rect class="cls-23" x="336.85" y="340.37" width="30.78" height="65.22"/><rect class="cls-23" x="402.28" y="340.37" width="30.78" height="65.22"/><polygon class="cls-24" points="402.28 340.37 433.06 366.02 433.06 340.37 402.28 340.37"/><polygon class="cls-24" points="336.85 340.37 367.63 366.02 367.63 340.37 336.85 340.37"/><polygon class="cls-25" points="429.43 317.36 340.48 317.36 333.48 340.37 436.43 340.37 429.43 317.36"/><rect class="cls-26" x="333.48" y="339.72" width="102.95" height="1.29"/><polygon class="cls-5" points="402.51 340.15 385.07 315.46 367.63 340.15 367.63 405.59 402.51 405.59 402.51 340.15"/><polygon class="cls-23" points="376.38 327.75 402.51 349.53 402.51 345.82 402.51 340.15 385.07 315.46 376.38 327.75"/><polygon class="cls-26" points="404.94 344.69 385.07 316.58 365.2 344.69 364.15 343.95 385.07 314.35 405.99 343.95 404.94 344.69"/><path class="cls-9" d="M352.24,370h0a4.85,4.85,0,0,0,4.85-4.85V357a4.85,4.85,0,0,0-4.85-4.85h0a4.85,4.85,0,0,0-4.85,4.85v8.22A4.85,4.85,0,0,0,352.24,370Z"/><path class="cls-10" d="M352.24,352.11h0a5.22,5.22,0,0,0-1.13.14l6,5V357A4.85,4.85,0,0,0,352.24,352.11Z"/><path class="cls-22" d="M352.24,351.73A5.24,5.24,0,0,0,347,357v8.22a5.23,5.23,0,0,0,10.45,0V357A5.23,5.23,0,0,0,352.24,351.73Zm4.43,4.85h-4.06v-4.06A4.44,4.44,0,0,1,356.67,356.58Zm-8.91,8.22v-7.47h8.95v7.47Zm4.1-12.28v4.06H347.8A4.45,4.45,0,0,1,351.86,352.52Zm-4.06,13h4.06v4.06A4.44,4.44,0,0,1,347.8,365.55Zm4.81,4.06v-4.06h4.06A4.43,4.43,0,0,1,352.61,369.61Z"/><path class="cls-12" d="M352.24,351.73a5.08,5.08,0,0,0-1.47.24l.74.61c.12,0,.23-.05.35-.06v.36l.75.63v-1a4.44,4.44,0,0,1,4.06,4.06h-.37l1.16,1V357A5.23,5.23,0,0,0,352.24,351.73Z"/><path class="cls-9" d="M352.24,397.65h0a4.85,4.85,0,0,0,4.85-4.84v-8.22a4.85,4.85,0,0,0-4.85-4.85h0a4.85,4.85,0,0,0-4.85,4.85v8.22A4.85,4.85,0,0,0,352.24,397.65Z"/><path class="cls-22" d="M352.24,379.36a5.24,5.24,0,0,0-5.23,5.23v8.22a5.23,5.23,0,0,0,10.45,0v-8.22A5.23,5.23,0,0,0,352.24,379.36Zm4.43,4.85h-4.06v-4.06A4.44,4.44,0,0,1,356.67,384.21Zm-8.91,8.22V385h8.95v7.47Zm4.1-12.28v4.06H347.8A4.45,4.45,0,0,1,351.86,380.15Zm-4.06,13h4.06v4.06A4.44,4.44,0,0,1,347.8,393.18Zm4.81,4.06v-4.06h4.06A4.43,4.43,0,0,1,352.61,397.24Z"/><path class="cls-9" d="M391,405.59H379.1V385.05a6,6,0,0,1,6-6h0a6,6,0,0,1,6,6Z"/><path class="cls-22" d="M385.07,378.7a6.36,6.36,0,0,0-6.35,6.35v20.54h.75V385.42h11.2v20.17h.75V385.05A6.36,6.36,0,0,0,385.07,378.7Zm.37.77a5.6,5.6,0,0,1,3.31,1.37l-3.31,3.3Zm-.75,4.67-3.3-3.3a5.57,5.57,0,0,1,3.3-1.37Zm-.53.53h-4.67a5.51,5.51,0,0,1,1.37-3.3Zm5.12-3.3a5.63,5.63,0,0,1,1.37,3.3H386Z"/><path class="cls-9" d="M385.07,370h0a4.85,4.85,0,0,0,4.85-4.85V357a4.85,4.85,0,0,0-4.85-4.85h0a4.85,4.85,0,0,0-4.85,4.85v8.22A4.85,4.85,0,0,0,385.07,370Z"/><path class="cls-22" d="M385.07,351.73a5.24,5.24,0,0,0-5.23,5.23v8.22a5.23,5.23,0,0,0,10.45,0V357A5.23,5.23,0,0,0,385.07,351.73Zm4.43,4.85h-4.06v-4.06A4.44,4.44,0,0,1,389.5,356.58Zm-8.91,8.22v-7.47h9v7.47Zm4.1-12.28v4.06h-4.06A4.45,4.45,0,0,1,384.69,352.52Zm-4.06,13h4.06v4.06A4.44,4.44,0,0,1,380.63,365.55Zm4.81,4.06v-4.06h4.06A4.43,4.43,0,0,1,385.44,369.61Z"/><path class="cls-9" d="M417.67,370h0a4.85,4.85,0,0,0,4.85-4.85V357a4.85,4.85,0,0,0-4.85-4.85h0a4.85,4.85,0,0,0-4.85,4.85v8.22A4.85,4.85,0,0,0,417.67,370Z"/><path class="cls-10" d="M417.67,352.11a5.22,5.22,0,0,0-1.13.14l6,5V357A4.85,4.85,0,0,0,417.67,352.11Z"/><path class="cls-22" d="M417.67,351.73a5.24,5.24,0,0,0-5.23,5.23v8.22a5.23,5.23,0,0,0,10.45,0V357A5.23,5.23,0,0,0,417.67,351.73Zm4.43,4.85H418v-4.06A4.44,4.44,0,0,1,422.1,356.58Zm-8.91,8.22v-7.47h8.95v7.47Zm4.1-12.28v4.06h-4.06A4.45,4.45,0,0,1,417.29,352.52Zm-4.06,13h4.06v4.06A4.44,4.44,0,0,1,413.23,365.55Zm4.81,4.06v-4.06h4.06A4.43,4.43,0,0,1,418,369.61Z"/><path class="cls-12" d="M417.67,351.73a5.14,5.14,0,0,0-1.47.24l.74.61c.12,0,.23-.05.35-.06v.36l.75.63v-1a4.44,4.44,0,0,1,4.06,4.06h-.36l1.15,1V357A5.23,5.23,0,0,0,417.67,351.73Z"/><path class="cls-9" d="M417.67,397.65h0a4.85,4.85,0,0,0,4.85-4.84v-8.22a4.85,4.85,0,0,0-4.85-4.85h0a4.85,4.85,0,0,0-4.85,4.85v8.22A4.85,4.85,0,0,0,417.67,397.65Z"/><path class="cls-22" d="M417.67,379.36a5.24,5.24,0,0,0-5.23,5.23v8.22a5.23,5.23,0,0,0,10.45,0v-8.22A5.23,5.23,0,0,0,417.67,379.36Zm4.43,4.85H418v-4.06A4.44,4.44,0,0,1,422.1,384.21Zm-8.91,8.22V385h8.95v7.47Zm4.1-12.28v4.06h-4.06A4.45,4.45,0,0,1,417.29,380.15Zm-4.06,13h4.06v4.06A4.44,4.44,0,0,1,413.23,393.18Zm4.81,4.06v-4.06h4.06A4.43,4.43,0,0,1,418,397.24Z"/><path class="cls-9" d="M391,336.76a6,6,0,1,1-6-6A6,6,0,0,1,391,336.76Z"/><path class="cls-10" d="M385.07,330.78a6,6,0,0,0-3.6,1.21l8.93,7.44a5.84,5.84,0,0,0,.64-2.67A6,6,0,0,0,385.07,330.78Z"/><path class="cls-22" d="M385.07,330.41a6.35,6.35,0,1,0,6.35,6.35A6.36,6.36,0,0,0,385.07,330.41Zm5.58,6h-5.21v-5.2A5.59,5.59,0,0,1,390.65,336.38Zm-6-5.2v5.2h-5.2A5.59,5.59,0,0,1,384.69,331.18Zm-5.2,5.95h5.2v5.2A5.59,5.59,0,0,1,379.49,337.13Zm5.95,5.2v-5.2h5.21A5.59,5.59,0,0,1,385.44,342.33Z"/><path class="cls-12" d="M385.07,330.41a6.3,6.3,0,0,0-3.89,1.34l.6.5a5.51,5.51,0,0,1,2.91-1.07v3.5l.75.62v-4.12a5.59,5.59,0,0,1,5.21,5.2h-3.91l.9.75h3a5.67,5.67,0,0,1-.55,2.05l.6.5a6.34,6.34,0,0,0-5.63-9.27Z"/><path class="cls-27" d="M167.47,94.19a12.26,12.26,0,0,0-12.25,12.25V388.35a12.25,12.25,0,0,0,12.25,12.24H294.21a12.25,12.25,0,0,0,12.25-12.24V106.44a12.26,12.26,0,0,0-12.25-12.25Z"/><path class="cls-28" d="M294.21,94.19H167.47a12.26,12.26,0,0,0-12.25,12.25V108L306.46,227.83V106.44A12.26,12.26,0,0,0,294.21,94.19Z"/><path class="cls-29" d="M168.22,92.14h42a0,0,0,0,1,0,0v57a0,0,0,0,1,0,0h-55a0,0,0,0,1,0,0v-44A13,13,0,0,1,168.22,92.14Z"/><rect class="cls-30" x="234.07" y="120.48" width="48.26" height="28.68"/><rect class="cls-29" x="234.07" y="173.36" width="40.77" height="62.19"/><rect class="cls-29" x="234.07" y="239.22" width="40.77" height="34.47"/><rect class="cls-29" x="234.07" y="297.82" width="20.38" height="42.64"/><rect class="cls-29" x="234.07" y="344.27" width="20.38" height="20.38"/><rect class="cls-29" x="258.4" y="297.82" width="48.85" height="22.26"/><rect class="cls-29" x="258.4" y="324.17" width="16.43" height="40.39"/><rect class="cls-29" x="278.79" y="324.17" width="28.87" height="40.39"/><rect class="cls-30" x="278.79" y="173.36" width="28.68" height="26.94"/><rect class="cls-29" x="278.79" y="204.24" width="28.68" height="48.26"/><rect class="cls-29" x="278.79" y="256.45" width="28.68" height="17.24"/><rect class="cls-30" x="286.28" y="120.48" width="21.08" height="28.68"/><rect class="cls-30" x="234.07" y="92.14" width="37.08" height="24.3"/><path class="cls-30" d="M274.84,92.14h21.43a11.2,11.2,0,0,1,11.2,11.2v15.07a0,0,0,0,1,0,0H274.84a0,0,0,0,1,0,0V92.14A0,0,0,0,1,274.84,92.14Z"/><rect class="cls-29" x="155.22" y="173.36" width="54.97" height="23.74"/><rect class="cls-29" x="175.39" y="275.61" width="34.8" height="23.74"/><rect class="cls-29" x="154.42" y="303.25" width="55.77" height="33.66"/><rect class="cls-29" x="172.42" y="340.86" width="37.77" height="12.55"/><rect class="cls-29" x="154.42" y="340.86" width="14.05" height="12.55"/><rect class="cls-29" x="154.42" y="275.61" width="17.02" height="23.74"/><rect class="cls-29" x="182.7" y="201.2" width="27.49" height="50.21"/><rect class="cls-29" x="155.22" y="201.2" width="23.38" height="50.21"/><rect class="cls-29" x="221.97" y="282.38" width="85.49" height="7.13"/><rect class="cls-29" x="153.7" y="259.95" width="68.27" height="7.13"/><rect class="cls-29" x="153.7" y="361.94" width="68.27" height="7.13"/><rect class="cls-29" x="221.97" y="373.28" width="85.68" height="7.13"/><polygon class="cls-29" points="307.46 157.69 225.54 157.69 225.54 92.14 218.4 92.14 218.4 157.69 155.22 157.69 155.22 164.83 218.4 164.83 218.4 400.59 225.54 400.59 225.54 164.83 307.46 164.83 307.46 157.69"/><rect class="cls-29" x="186.14" y="377.6" width="23.73" height="23.73"/><path class="cls-29" d="M153.7,377.6h28.6a0,0,0,0,1,0,0v23.73a0,0,0,0,1,0,0H163.7a10,10,0,0,1-10-10V377.6A0,0,0,0,1,153.7,377.6Z"/><rect class="cls-29" x="234.07" y="388.95" width="43.28" height="12.39"/><path class="cls-29" d="M295.27,401.33h-14V389h26.35A12.38,12.38,0,0,1,295.27,401.33Z"/><path class="cls-30" d="M210.19,149.16v-55H167.47a12.26,12.26,0,0,0-12.25,12.25V108l52,41.18Z"/><polygon class="cls-30" points="226.96 164.83 306.46 164.83 306.46 157.69 225.54 157.69 225.54 94.19 218.4 94.19 218.4 157.69 217.95 157.69 226.96 164.83"/><polygon class="cls-30" points="274.84 202.77 274.84 173.36 237.72 173.36 274.84 202.77"/><polygon class="cls-30" points="278.79 205.9 306.46 227.83 306.46 204.25 278.79 204.25 278.79 205.9"/><path class="cls-31" d="M294.21,89.74H167.47a16.72,16.72,0,0,0-16.7,16.7V388.35a16.72,16.72,0,0,0,16.7,16.7H294.21a16.72,16.72,0,0,0,16.7-16.7V106.44A16.72,16.72,0,0,0,294.21,89.74Zm12.25,298.61a12.25,12.25,0,0,1-12.25,12.24H167.47a12.25,12.25,0,0,1-12.25-12.24V106.44a12.26,12.26,0,0,1,12.25-12.25h16.79a12.61,12.61,0,0,0,12.61,12.61h67.94a12.61,12.61,0,0,0,12.61-12.61h16.79a12.26,12.26,0,0,1,12.25,12.25Z"/><path class="cls-32" d="M294.21,89.74H167.47a16.72,16.72,0,0,0-16.59,14.8l4.34,3.44v-1.54a12.26,12.26,0,0,1,12.25-12.25h16.79a12.61,12.61,0,0,0,12.61,12.61h67.94a12.61,12.61,0,0,0,12.61-12.61h16.79a12.26,12.26,0,0,1,12.25,12.25V227.83l4.45,3.53V106.44A16.72,16.72,0,0,0,294.21,89.74Z"/><g class="cls-33"><path class="cls-11" d="M266.62,368.71a65.46,65.46,0,1,1,65.46-65.46A65.54,65.54,0,0,1,266.62,368.71Z"/></g><rect class="cls-34" x="331.31" y="346.93" width="6" height="92.26" transform="translate(-169.24 280.41) rotate(-37.01)"/><path class="cls-17" d="M362.09,438.9a9,9,0,0,1-7.2-3.58l-32.15-42.66a9,9,0,0,1,14.38-10.84l32.15,42.66a9,9,0,0,1-7.18,14.42Z"/><path class="cls-35" d="M266.62,374.58A71.33,71.33,0,1,1,338,303.25,71.41,71.41,0,0,1,266.62,374.58Zm0-132.66A61.33,61.33,0,1,0,328,303.25,61.4,61.4,0,0,0,266.62,241.92Z"/><path class="cls-11" d="M217.18,289.11a2,2,0,0,1-.63-.1,2,2,0,0,1-1.28-2.52,54.29,54.29,0,0,1,28.24-32.06,2,2,0,1,1,1.72,3.62,50.2,50.2,0,0,0-26.15,29.68A2,2,0,0,1,217.18,289.11Z"/><path class="cls-36" d="M296.06,291.74a29.44,29.44,0,1,0-55.31,14h0l22.76,41.63a2.75,2.75,0,0,0,4.79.06l23.43-40.36A29.25,29.25,0,0,0,296.06,291.74Z"/><circle class="cls-34" cx="266.62" cy="291.74" r="22.2" transform="translate(-78.14 484.96) rotate(-76.84)"/><polygon class="cls-36" points="266.62 274.22 254.53 284.22 258.38 284.22 258.38 297.04 263.99 297.04 263.99 288.49 269.25 288.49 269.25 297.04 274.86 297.04 274.86 284.22 278.71 284.22 266.62 274.22"/><polygon class="cls-36" points="278.15 299.47 278.73 301.25 280.6 301.25 279.08 302.35 279.66 304.13 278.15 303.03 276.63 304.13 277.21 302.35 275.69 301.25 277.57 301.25 278.15 299.47"/><polygon class="cls-37" points="272.38 299.47 272.96 301.25 274.84 301.25 273.32 302.35 273.9 304.13 272.38 303.03 270.87 304.13 271.45 302.35 269.93 301.25 271.81 301.25 272.38 299.47"/><polygon class="cls-37" points="266.62 299.47 267.2 301.25 269.07 301.25 267.56 302.35 268.14 304.13 266.62 303.03 265.1 304.13 265.68 302.35 264.17 301.25 266.04 301.25 266.62 299.47"/><polygon class="cls-37" points="260.86 299.47 261.44 301.25 263.31 301.25 261.79 302.35 262.37 304.13 260.86 303.03 259.34 304.13 259.92 302.35 258.4 301.25 260.28 301.25 260.86 299.47"/><polygon class="cls-37" points="255.09 299.47 255.67 301.25 257.55 301.25 256.03 302.35 256.61 304.13 255.09 303.03 253.58 304.13 254.16 302.35 252.64 301.25 254.51 301.25 255.09 299.47"/><path class="cls-38" d="M360.05,412.24l-22.93-30.42a9,9,0,0,0-15.71,2.51Z"/><path class="cls-36" d="M180,229.25a7.54,7.54,0,1,0-14.18,3.6h0l5.84,10.67a.7.7,0,0,0,1.22,0l6-10.35A7.47,7.47,0,0,0,180,229.25Z"/><circle class="cls-34" cx="172.42" cy="229.25" r="5.69"/><polygon class="cls-36" points="172.42 225.77 169.31 228.33 170.3 228.33 170.3 231.62 171.74 231.62 171.74 229.43 173.09 229.43 173.09 231.62 174.53 231.62 174.53 228.33 175.52 228.33 172.42 225.77"/><path class="cls-36" d="M270.86,196.39a7.55,7.55,0,1,0-14.19,3.6h0l5.84,10.68a.71.71,0,0,0,1.23,0l6-10.35A7.56,7.56,0,0,0,270.86,196.39Z"/><path class="cls-39" d="M262.78,188.86a7.35,7.35,0,0,0-3.79,1.35l11.32,9a7.38,7.38,0,0,0,.55-2.79A7.54,7.54,0,0,0,262.78,188.86Z"/><circle class="cls-34" cx="263.31" cy="196.39" r="5.69"/><path class="cls-40" d="M263.31,190.7a5.63,5.63,0,0,0-2.79.73l8.26,6.54a5.85,5.85,0,0,0,.22-1.58A5.69,5.69,0,0,0,263.31,190.7Z"/><polygon class="cls-36" points="263.31 192.91 260.21 195.47 261.2 195.47 261.2 198.76 262.63 198.76 262.63 196.57 263.99 196.57 263.99 198.76 265.42 198.76 265.42 195.47 266.41 195.47 263.31 192.91"/><polygon class="cls-39" points="262.86 193.28 265.63 195.47 266.41 195.47 263.31 192.91 262.86 193.28"/><path class="cls-36" d="M187.51,124.25a7.54,7.54,0,0,0-15.08-.38,7.43,7.43,0,0,0,.9,4h0l5.84,10.67a.7.7,0,0,0,1.22,0l6-10.35A7.47,7.47,0,0,0,187.51,124.25Z"/><path class="cls-39" d="M179.43,116.72a7.58,7.58,0,0,0-6.64,5.19l11.82,9.36,1.79-3.08a7.55,7.55,0,0,0-7-11.47Z"/><circle class="cls-34" cx="179.96" cy="124.25" r="5.69"/><path class="cls-40" d="M180,118.55a5.7,5.7,0,0,0-5.58,4.61l7.92,6.28A5.7,5.7,0,0,0,180,118.55Z"/><polygon class="cls-36" points="179.97 121.06 176.86 123.62 177.85 123.62 177.85 126.91 179.29 126.91 179.29 124.72 180.64 124.72 180.64 126.91 182.08 126.91 182.08 123.62 183.07 123.62 179.97 121.06"/><polygon class="cls-39" points="179.97 121.06 176.86 123.62 177.85 123.62 177.85 125.92 179.11 126.91 179.29 126.91 179.29 124.72 180.64 124.72 180.64 126.91 182.08 126.91 182.08 123.62 183.07 123.62 179.97 121.06"/><path class="cls-36" d="M190.61,332.31a7.54,7.54,0,1,0-14.18,3.6h0l5.84,10.68a.7.7,0,0,0,1.22,0l6-10.35A7.42,7.42,0,0,0,190.61,332.31Z"/><circle class="cls-34" cx="183.07" cy="332.31" r="5.69"/><polygon class="cls-36" points="183.07 328.83 179.97 331.4 180.95 331.4 180.95 334.68 182.39 334.68 182.39 332.49 183.74 332.49 183.74 334.68 185.18 334.68 185.18 331.4 186.17 331.4 183.07 328.83"/></g></svg>